<?xml version="1.0" encoding="UTF-8" standalone="no"?>
<!DOCTYPE svg PUBLIC "-//W3C//DTD SVG 1.1//EN"
 "http://www.w3.org/Graphics/SVG/1.1/DTD/svg11.dtd">
<!-- Generated by graphviz version 3.0.0 (20220226.1711)
 -->
<!-- Title: dependencies Pages: 1 -->
<svg width="1540pt" height="247pt"
 viewBox="0.00 0.00 1540.00 246.80" xmlns="http://www.w3.org/2000/svg" xmlns:xlink="http://www.w3.org/1999/xlink">
<g id="graph0" class="graph" transform="scale(1 1) rotate(0) translate(4 242.8)">
<title>dependencies</title>
<polygon fill="white" stroke="transparent" points="-4,4 -4,-242.8 1536,-242.8 1536,4 -4,4"/>
<text text-anchor="middle" x="766" y="-8.2" font-family="sans-serif" font-size="14.00">dependencies</text>
<g id="clust1" class="cluster">
<title>cluster_AppModule</title>
<polygon fill="none" stroke="black" stroke-dasharray="1,5" points="8,-32.8 8,-230.8 1524,-230.8 1524,-32.8 8,-32.8"/>
</g>
<g id="clust12" class="cluster">
<title>cluster_AppModule_imports</title>
<polygon fill="none" stroke="black" points="1372,-40.8 1372,-92.8 1516,-92.8 1516,-40.8 1372,-40.8"/>
</g>
<g id="clust14" class="cluster">
<title>cluster_AppModule_bootstrap</title>
<polygon fill="none" stroke="black" points="716,-170.8 716,-222.8 840,-222.8 840,-170.8 716,-170.8"/>
</g>
<g id="clust2" class="cluster">
<title>cluster_AppModule_declarations</title>
<polygon fill="none" stroke="black" points="16,-40.8 16,-92.8 1364,-92.8 1364,-40.8 16,-40.8"/>
</g>
<!-- AboutComponent -->
<g id="node1" class="node">
<title>AboutComponent</title>
<polygon fill="#ffffb3" stroke="black" points="1356.33,-84.8 1239.67,-84.8 1239.67,-48.8 1356.33,-48.8 1356.33,-84.8"/>
<text text-anchor="middle" x="1298" y="-62.6" font-family="Times,serif" font-size="14.00">AboutComponent</text>
</g>
<!-- AppModule -->
<g id="node10" class="node">
<title>AppModule</title>
<polygon fill="#8dd3c7" stroke="black" points="819.66,-149.8 816.66,-153.8 795.66,-153.8 792.66,-149.8 736.34,-149.8 736.34,-113.8 819.66,-113.8 819.66,-149.8"/>
<text text-anchor="middle" x="778" y="-127.6" font-family="Times,serif" font-size="14.00">AppModule</text>
</g>
<!-- AboutComponent&#45;&gt;AppModule -->
<g id="edge1" class="edge">
<title>AboutComponent&#45;&gt;AppModule</title>
<path fill="none" stroke="black" d="M1298,-84.93C1298,-105.37 1298,-135.8 1298,-135.8 1298,-135.8 829.67,-135.8 829.67,-135.8"/>
<polygon fill="black" stroke="black" points="829.67,-132.3 819.67,-135.8 829.67,-139.3 829.67,-132.3"/>
</g>
<!-- AppComponent -->
<g id="node2" class="node">
<title>AppComponent</title>
<polygon fill="#ffffb3" stroke="black" points="1221.94,-84.8 1116.06,-84.8 1116.06,-48.8 1221.94,-48.8 1221.94,-84.8"/>
<text text-anchor="middle" x="1169" y="-62.6" font-family="Times,serif" font-size="14.00">AppComponent</text>
</g>
<!-- AppComponent&#45;&gt;AppModule -->
<g id="edge2" class="edge">
<title>AppComponent&#45;&gt;AppModule</title>
<path fill="none" stroke="black" d="M1169,-85.07C1169,-103.36 1169,-128.8 1169,-128.8 1169,-128.8 829.84,-128.8 829.84,-128.8"/>
<polygon fill="black" stroke="black" points="829.84,-125.3 819.84,-128.8 829.84,-132.3 829.84,-125.3"/>
</g>
<!-- CompDetailsComponent -->
<g id="node3" class="node">
<title>CompDetailsComponent</title>
<polygon fill="#ffffb3" stroke="black" points="1098.71,-84.8 943.29,-84.8 943.29,-48.8 1098.71,-48.8 1098.71,-84.8"/>
<text text-anchor="middle" x="1021" y="-62.6" font-family="Times,serif" font-size="14.00">CompDetailsComponent</text>
</g>
<!-- CompDetailsComponent&#45;&gt;AppModule -->
<g id="edge3" class="edge">
<title>CompDetailsComponent&#45;&gt;AppModule</title>
<path fill="none" stroke="black" d="M1021,-84.81C1021,-100.85 1021,-121.8 1021,-121.8 1021,-121.8 829.77,-121.8 829.77,-121.8"/>
<polygon fill="black" stroke="black" points="829.77,-118.3 819.77,-121.8 829.77,-125.3 829.77,-118.3"/>
</g>
<!-- CpuDetailsComponent -->
<g id="node4" class="node">
<title>CpuDetailsComponent</title>
<polygon fill="#ffffb3" stroke="black" points="925.32,-84.8 780.68,-84.8 780.68,-48.8 925.32,-48.8 925.32,-84.8"/>
<text text-anchor="middle" x="853" y="-62.6" font-family="Times,serif" font-size="14.00">CpuDetailsComponent</text>
</g>
<!-- CpuDetailsComponent&#45;&gt;AppModule -->
<g id="edge4" class="edge">
<title>CpuDetailsComponent&#45;&gt;AppModule</title>
<path fill="none" stroke="black" d="M800.33,-84.91C800.33,-84.91 800.33,-103.79 800.33,-103.79"/>
<polygon fill="black" stroke="black" points="796.83,-103.79 800.33,-113.79 803.83,-103.79 796.83,-103.79"/>
</g>
<!-- FooterComponent -->
<g id="node5" class="node">
<title>FooterComponent</title>
<polygon fill="#ffffb3" stroke="black" points="762.88,-84.8 645.12,-84.8 645.12,-48.8 762.88,-48.8 762.88,-84.8"/>
<text text-anchor="middle" x="704" y="-62.6" font-family="Times,serif" font-size="14.00">FooterComponent</text>
</g>
<!-- FooterComponent&#45;&gt;AppModule -->
<g id="edge5" class="edge">
<title>FooterComponent&#45;&gt;AppModule</title>
<path fill="none" stroke="black" d="M749.56,-84.91C749.56,-84.91 749.56,-103.79 749.56,-103.79"/>
<polygon fill="black" stroke="black" points="746.06,-103.79 749.56,-113.79 753.06,-103.79 746.06,-103.79"/>
</g>
<!-- HomeComponent -->
<g id="node6" class="node">
<title>HomeComponent</title>
<polygon fill="#ffffb3" stroke="black" points="626.55,-84.8 511.45,-84.8 511.45,-48.8 626.55,-48.8 626.55,-84.8"/>
<text text-anchor="middle" x="569" y="-62.6" font-family="Times,serif" font-size="14.00">HomeComponent</text>
</g>
<!-- HomeComponent&#45;&gt;AppModule -->
<g id="edge6" class="edge">
<title>HomeComponent&#45;&gt;AppModule</title>
<path fill="none" stroke="black" d="M569,-84.81C569,-100.85 569,-121.8 569,-121.8 569,-121.8 726.21,-121.8 726.21,-121.8"/>
<polygon fill="black" stroke="black" points="726.21,-125.3 736.21,-121.8 726.21,-118.3 726.21,-125.3"/>
</g>
<!-- MainNavComponent -->
<g id="node7" class="node">
<title>MainNavComponent</title>
<polygon fill="#ffffb3" stroke="black" points="493.21,-84.8 358.79,-84.8 358.79,-48.8 493.21,-48.8 493.21,-84.8"/>
<text text-anchor="middle" x="426" y="-62.6" font-family="Times,serif" font-size="14.00">MainNavComponent</text>
</g>
<!-- MainNavComponent&#45;&gt;AppModule -->
<g id="edge7" class="edge">
<title>MainNavComponent&#45;&gt;AppModule</title>
<path fill="none" stroke="black" d="M426,-85.07C426,-103.36 426,-128.8 426,-128.8 426,-128.8 726.24,-128.8 726.24,-128.8"/>
<polygon fill="black" stroke="black" points="726.24,-132.3 736.24,-128.8 726.24,-125.3 726.24,-132.3"/>
</g>
<!-- MuseumTimelineComponent -->
<g id="node8" class="node">
<title>MuseumTimelineComponent</title>
<polygon fill="#ffffb3" stroke="black" points="340.37,-84.8 159.63,-84.8 159.63,-48.8 340.37,-48.8 340.37,-84.8"/>
<text text-anchor="middle" x="250" y="-62.6" font-family="Times,serif" font-size="14.00">MuseumTimelineComponent</text>
</g>
<!-- MuseumTimelineComponent&#45;&gt;AppModule -->
<g id="edge8" class="edge">
<title>MuseumTimelineComponent&#45;&gt;AppModule</title>
<path fill="none" stroke="black" d="M250,-84.93C250,-105.37 250,-135.8 250,-135.8 250,-135.8 726.13,-135.8 726.13,-135.8"/>
<polygon fill="black" stroke="black" points="726.13,-139.3 736.13,-135.8 726.13,-132.3 726.13,-139.3"/>
</g>
<!-- PeriodComponent -->
<g id="node9" class="node">
<title>PeriodComponent</title>
<polygon fill="#ffffb3" stroke="black" points="141.88,-84.8 24.12,-84.8 24.12,-48.8 141.88,-48.8 141.88,-84.8"/>
<text text-anchor="middle" x="83" y="-62.6" font-family="Times,serif" font-size="14.00">PeriodComponent</text>
</g>
<!-- PeriodComponent&#45;&gt;AppModule -->
<g id="edge9" class="edge">
<title>PeriodComponent&#45;&gt;AppModule</title>
<path fill="none" stroke="black" d="M83,-84.81C83,-107.29 83,-142.8 83,-142.8 83,-142.8 726.09,-142.8 726.09,-142.8"/>
<polygon fill="black" stroke="black" points="726.09,-146.3 736.09,-142.8 726.09,-139.3 726.09,-146.3"/>
</g>
<!-- AppComponent  -->
<g id="node12" class="node">
<title>AppComponent </title>
<polygon fill="#80b1d3" stroke="black" points="832.44,-214.8 723.56,-214.8 723.56,-178.8 832.44,-178.8 832.44,-214.8"/>
<text text-anchor="middle" x="778" y="-192.6" font-family="Times,serif" font-size="14.00">AppComponent </text>
</g>
<!-- AppModule&#45;&gt;AppComponent  -->
<g id="edge11" class="edge">
<title>AppModule&#45;&gt;AppComponent </title>
<path fill="none" stroke="black" stroke-dasharray="1,5" d="M778,-149.91C778,-149.91 778,-168.79 778,-168.79"/>
<polygon fill="black" stroke="black" points="774.5,-168.79 778,-178.79 781.5,-168.79 774.5,-168.79"/>
</g>
<!-- AppRoutingModule -->
<g id="node11" class="node">
<title>AppRoutingModule</title>
<polygon fill="#8dd3c7" stroke="black" points="1508.28,-84.8 1505.28,-88.8 1484.28,-88.8 1481.28,-84.8 1379.72,-84.8 1379.72,-48.8 1508.28,-48.8 1508.28,-84.8"/>
<text text-anchor="middle" x="1444" y="-62.6" font-family="Times,serif" font-size="14.00">AppRoutingModule</text>
</g>
<!-- AppRoutingModule&#45;&gt;AppModule -->
<g id="edge10" class="edge">
<title>AppRoutingModule&#45;&gt;AppModule</title>
<path fill="none" stroke="black" d="M1444,-84.81C1444,-107.29 1444,-142.8 1444,-142.8 1444,-142.8 829.91,-142.8 829.91,-142.8"/>
<polygon fill="black" stroke="black" points="829.91,-139.3 819.91,-142.8 829.91,-146.3 829.91,-139.3"/>
</g>
</g>
</svg>
