<?xml version="1.0" encoding="UTF-8" standalone="no"?>
<!DOCTYPE svg PUBLIC "-//W3C//DTD SVG 1.1//EN"
 "http://www.w3.org/Graphics/SVG/1.1/DTD/svg11.dtd">
<!-- Generated by graphviz version 3.0.0 (20220226.1711)
 -->
<!-- Title: dependencies Pages: 1 -->
<svg width="2680pt" height="247pt"
 viewBox="0.00 0.00 2680.00 246.80" xmlns="http://www.w3.org/2000/svg" xmlns:xlink="http://www.w3.org/1999/xlink">
<g id="graph0" class="graph" transform="scale(1 1) rotate(0) translate(4 242.8)">
<title>dependencies</title>
<polygon fill="white" stroke="transparent" points="-4,4 -4,-242.8 2676,-242.8 2676,4 -4,4"/>
<text text-anchor="middle" x="1336" y="-8.2" font-family="sans-serif" font-size="14.00">dependencies</text>
<g id="clust1" class="cluster">
<title>cluster_AppModule</title>
<polygon fill="none" stroke="black" stroke-dasharray="1,5" points="8,-32.8 8,-230.8 2664,-230.8 2664,-32.8 8,-32.8"/>
</g>
<g id="clust18" class="cluster">
<title>cluster_AppModule_imports</title>
<polygon fill="none" stroke="black" points="2512,-40.8 2512,-92.8 2656,-92.8 2656,-40.8 2512,-40.8"/>
</g>
<g id="clust20" class="cluster">
<title>cluster_AppModule_bootstrap</title>
<polygon fill="none" stroke="black" points="1245,-170.8 1245,-222.8 1369,-222.8 1369,-170.8 1245,-170.8"/>
</g>
<g id="clust2" class="cluster">
<title>cluster_AppModule_declarations</title>
<polygon fill="none" stroke="black" points="16,-40.8 16,-92.8 2504,-92.8 2504,-40.8 16,-40.8"/>
</g>
<!-- AddCompComponent -->
<g id="node1" class="node">
<title>AddCompComponent</title>
<polygon fill="#ffffb3" stroke="black" points="2495.67,-84.8 2356.33,-84.8 2356.33,-48.8 2495.67,-48.8 2495.67,-84.8"/>
<text text-anchor="middle" x="2426" y="-62.6" font-family="Times,serif" font-size="14.00">AddCompComponent</text>
</g>
<!-- AppModule -->
<g id="node16" class="node">
<title>AppModule</title>
<polygon fill="#8dd3c7" stroke="black" points="1348.66,-149.8 1345.66,-153.8 1324.66,-153.8 1321.66,-149.8 1265.34,-149.8 1265.34,-113.8 1348.66,-113.8 1348.66,-149.8"/>
<text text-anchor="middle" x="1307" y="-127.6" font-family="Times,serif" font-size="14.00">AppModule</text>
</g>
<!-- AddCompComponent&#45;&gt;AppModule -->
<g id="edge1" class="edge">
<title>AddCompComponent&#45;&gt;AppModule</title>
<path fill="none" stroke="black" d="M2426,-85.09C2426,-107.01 2426,-140.8 2426,-140.8 2426,-140.8 1358.82,-140.8 1358.82,-140.8"/>
<polygon fill="black" stroke="black" points="1358.82,-137.3 1348.82,-140.8 1358.82,-144.3 1358.82,-137.3"/>
</g>
<!-- AddPeriodComponent -->
<g id="node2" class="node">
<title>AddPeriodComponent</title>
<polygon fill="#ffffb3" stroke="black" points="2337.99,-84.8 2196.01,-84.8 2196.01,-48.8 2337.99,-48.8 2337.99,-84.8"/>
<text text-anchor="middle" x="2267" y="-62.6" font-family="Times,serif" font-size="14.00">AddPeriodComponent</text>
</g>
<!-- AddPeriodComponent&#45;&gt;AppModule -->
<g id="edge2" class="edge">
<title>AddPeriodComponent&#45;&gt;AppModule</title>
<path fill="none" stroke="black" d="M2267,-84.83C2267,-105.57 2267,-136.8 2267,-136.8 2267,-136.8 1358.87,-136.8 1358.87,-136.8"/>
<polygon fill="black" stroke="black" points="1358.87,-133.3 1348.87,-136.8 1358.87,-140.3 1358.87,-133.3"/>
</g>
<!-- AppComponent -->
<g id="node3" class="node">
<title>AppComponent</title>
<polygon fill="#ffffb3" stroke="black" points="2177.94,-84.8 2072.06,-84.8 2072.06,-48.8 2177.94,-48.8 2177.94,-84.8"/>
<text text-anchor="middle" x="2125" y="-62.6" font-family="Times,serif" font-size="14.00">AppComponent</text>
</g>
<!-- AppComponent&#45;&gt;AppModule -->
<g id="edge3" class="edge">
<title>AppComponent&#45;&gt;AppModule</title>
<path fill="none" stroke="black" d="M2125,-84.91C2125,-104.14 2125,-131.8 2125,-131.8 2125,-131.8 1358.69,-131.8 1358.69,-131.8"/>
<polygon fill="black" stroke="black" points="1358.69,-128.3 1348.69,-131.8 1358.69,-135.3 1358.69,-128.3"/>
</g>
<!-- CompInputsComponent -->
<g id="node4" class="node">
<title>CompInputsComponent</title>
<polygon fill="#ffffb3" stroke="black" points="2054.06,-84.8 1903.94,-84.8 1903.94,-48.8 2054.06,-48.8 2054.06,-84.8"/>
<text text-anchor="middle" x="1979" y="-62.6" font-family="Times,serif" font-size="14.00">CompInputsComponent</text>
</g>
<!-- CompInputsComponent&#45;&gt;AppModule -->
<g id="edge4" class="edge">
<title>CompInputsComponent&#45;&gt;AppModule</title>
<path fill="none" stroke="black" d="M1979,-85.1C1979,-103.07 1979,-127.8 1979,-127.8 1979,-127.8 1358.78,-127.8 1358.78,-127.8"/>
<polygon fill="black" stroke="black" points="1358.78,-124.3 1348.78,-127.8 1358.78,-131.3 1358.78,-124.3"/>
</g>
<!-- ConfirmationDialogComponent -->
<g id="node5" class="node">
<title>ConfirmationDialogComponent</title>
<polygon fill="#ffffb3" stroke="black" points="1885.37,-84.8 1690.63,-84.8 1690.63,-48.8 1885.37,-48.8 1885.37,-84.8"/>
<text text-anchor="middle" x="1788" y="-62.6" font-family="Times,serif" font-size="14.00">ConfirmationDialogComponent</text>
</g>
<!-- ConfirmationDialogComponent&#45;&gt;AppModule -->
<g id="edge5" class="edge">
<title>ConfirmationDialogComponent&#45;&gt;AppModule</title>
<path fill="none" stroke="black" d="M1788,-84.83C1788,-101.2 1788,-122.8 1788,-122.8 1788,-122.8 1358.84,-122.8 1358.84,-122.8"/>
<polygon fill="black" stroke="black" points="1358.84,-119.3 1348.84,-122.8 1358.84,-126.3 1358.84,-119.3"/>
</g>
<!-- CpuTypeDetailsComponent -->
<g id="node6" class="node">
<title>CpuTypeDetailsComponent</title>
<polygon fill="#ffffb3" stroke="black" points="1672.59,-84.8 1499.41,-84.8 1499.41,-48.8 1672.59,-48.8 1672.59,-84.8"/>
<text text-anchor="middle" x="1586" y="-62.6" font-family="Times,serif" font-size="14.00">CpuTypeDetailsComponent</text>
</g>
<!-- CpuTypeDetailsComponent&#45;&gt;AppModule -->
<g id="edge6" class="edge">
<title>CpuTypeDetailsComponent&#45;&gt;AppModule</title>
<path fill="none" stroke="black" d="M1586,-84.99C1586,-99.98 1586,-118.8 1586,-118.8 1586,-118.8 1358.77,-118.8 1358.77,-118.8"/>
<polygon fill="black" stroke="black" points="1358.77,-115.3 1348.77,-118.8 1358.77,-122.3 1358.77,-115.3"/>
</g>
<!-- CpuTypeFormComponent -->
<g id="node7" class="node">
<title>CpuTypeFormComponent</title>
<polygon fill="#ffffb3" stroke="black" points="1481.77,-84.8 1318.23,-84.8 1318.23,-48.8 1481.77,-48.8 1481.77,-84.8"/>
<text text-anchor="middle" x="1400" y="-62.6" font-family="Times,serif" font-size="14.00">CpuTypeFormComponent</text>
</g>
<!-- CpuTypeFormComponent&#45;&gt;AppModule -->
<g id="edge7" class="edge">
<title>CpuTypeFormComponent&#45;&gt;AppModule</title>
<path fill="none" stroke="black" d="M1333.47,-84.91C1333.47,-84.91 1333.47,-103.79 1333.47,-103.79"/>
<polygon fill="black" stroke="black" points="1329.97,-103.79 1333.47,-113.79 1336.97,-103.79 1329.97,-103.79"/>
</g>
<!-- FormEditCompComponent -->
<g id="node8" class="node">
<title>FormEditCompComponent</title>
<polygon fill="#ffffb3" stroke="black" points="1299.73,-84.8 1130.27,-84.8 1130.27,-48.8 1299.73,-48.8 1299.73,-84.8"/>
<text text-anchor="middle" x="1215" y="-62.6" font-family="Times,serif" font-size="14.00">FormEditCompComponent</text>
</g>
<!-- FormEditCompComponent&#45;&gt;AppModule -->
<g id="edge8" class="edge">
<title>FormEditCompComponent&#45;&gt;AppModule</title>
<path fill="none" stroke="black" d="M1282.39,-84.91C1282.39,-84.91 1282.39,-103.79 1282.39,-103.79"/>
<polygon fill="black" stroke="black" points="1278.89,-103.79 1282.39,-113.79 1285.89,-103.79 1278.89,-103.79"/>
</g>
<!-- FormEditPeriodComponent -->
<g id="node9" class="node">
<title>FormEditPeriodComponent</title>
<polygon fill="#ffffb3" stroke="black" points="1112.55,-84.8 941.45,-84.8 941.45,-48.8 1112.55,-48.8 1112.55,-84.8"/>
<text text-anchor="middle" x="1027" y="-62.6" font-family="Times,serif" font-size="14.00">FormEditPeriodComponent</text>
</g>
<!-- FormEditPeriodComponent&#45;&gt;AppModule -->
<g id="edge9" class="edge">
<title>FormEditPeriodComponent&#45;&gt;AppModule</title>
<path fill="none" stroke="black" d="M1027,-84.99C1027,-99.98 1027,-118.8 1027,-118.8 1027,-118.8 1255.08,-118.8 1255.08,-118.8"/>
<polygon fill="black" stroke="black" points="1255.08,-122.3 1265.08,-118.8 1255.08,-115.3 1255.08,-122.3"/>
</g>
<!-- ListPeriodsComponent -->
<g id="node10" class="node">
<title>ListPeriodsComponent</title>
<polygon fill="#ffffb3" stroke="black" points="923.61,-84.8 778.39,-84.8 778.39,-48.8 923.61,-48.8 923.61,-84.8"/>
<text text-anchor="middle" x="851" y="-62.6" font-family="Times,serif" font-size="14.00">ListPeriodsComponent</text>
</g>
<!-- ListPeriodsComponent&#45;&gt;AppModule -->
<g id="edge10" class="edge">
<title>ListPeriodsComponent&#45;&gt;AppModule</title>
<path fill="none" stroke="black" d="M851,-84.83C851,-101.2 851,-122.8 851,-122.8 851,-122.8 1255.32,-122.8 1255.32,-122.8"/>
<polygon fill="black" stroke="black" points="1255.32,-126.3 1265.32,-122.8 1255.32,-119.3 1255.32,-126.3"/>
</g>
<!-- LoginComponent -->
<g id="node11" class="node">
<title>LoginComponent</title>
<polygon fill="#ffffb3" stroke="black" points="760.27,-84.8 645.73,-84.8 645.73,-48.8 760.27,-48.8 760.27,-84.8"/>
<text text-anchor="middle" x="703" y="-62.6" font-family="Times,serif" font-size="14.00">LoginComponent</text>
</g>
<!-- LoginComponent&#45;&gt;AppModule -->
<g id="edge11" class="edge">
<title>LoginComponent&#45;&gt;AppModule</title>
<path fill="none" stroke="black" d="M703,-85.1C703,-103.07 703,-127.8 703,-127.8 703,-127.8 1255.01,-127.8 1255.01,-127.8"/>
<polygon fill="black" stroke="black" points="1255.01,-131.3 1265.01,-127.8 1255.01,-124.3 1255.01,-131.3"/>
</g>
<!-- MenuComponent -->
<g id="node12" class="node">
<title>MenuComponent</title>
<polygon fill="#ffffb3" stroke="black" points="627.99,-84.8 514.01,-84.8 514.01,-48.8 627.99,-48.8 627.99,-84.8"/>
<text text-anchor="middle" x="571" y="-62.6" font-family="Times,serif" font-size="14.00">MenuComponent</text>
</g>
<!-- MenuComponent&#45;&gt;AppModule -->
<g id="edge12" class="edge">
<title>MenuComponent&#45;&gt;AppModule</title>
<path fill="none" stroke="black" d="M571,-84.91C571,-104.14 571,-131.8 571,-131.8 571,-131.8 1255.32,-131.8 1255.32,-131.8"/>
<polygon fill="black" stroke="black" points="1255.32,-135.3 1265.32,-131.8 1255.32,-128.3 1255.32,-135.3"/>
</g>
<!-- MyComponentComponent -->
<g id="node13" class="node">
<title>MyComponentComponent</title>
<polygon fill="#ffffb3" stroke="black" points="496.11,-84.8 329.89,-84.8 329.89,-48.8 496.11,-48.8 496.11,-84.8"/>
<text text-anchor="middle" x="413" y="-62.6" font-family="Times,serif" font-size="14.00">MyComponentComponent</text>
</g>
<!-- MyComponentComponent&#45;&gt;AppModule -->
<g id="edge13" class="edge">
<title>MyComponentComponent&#45;&gt;AppModule</title>
<path fill="none" stroke="black" d="M413,-84.83C413,-105.57 413,-136.8 413,-136.8 413,-136.8 1255.08,-136.8 1255.08,-136.8"/>
<polygon fill="black" stroke="black" points="1255.08,-140.3 1265.08,-136.8 1255.08,-133.3 1255.08,-140.3"/>
</g>
<!-- PeriodComponent -->
<g id="node14" class="node">
<title>PeriodComponent</title>
<polygon fill="#ffffb3" stroke="black" points="311.88,-84.8 194.12,-84.8 194.12,-48.8 311.88,-48.8 311.88,-84.8"/>
<text text-anchor="middle" x="253" y="-62.6" font-family="Times,serif" font-size="14.00">PeriodComponent</text>
</g>
<!-- PeriodComponent&#45;&gt;AppModule -->
<g id="edge14" class="edge">
<title>PeriodComponent&#45;&gt;AppModule</title>
<path fill="none" stroke="black" d="M253,-85.09C253,-107.01 253,-140.8 253,-140.8 253,-140.8 1255.03,-140.8 1255.03,-140.8"/>
<polygon fill="black" stroke="black" points="1255.03,-144.3 1265.03,-140.8 1255.03,-137.3 1255.03,-144.3"/>
</g>
<!-- PeriodInputsComponent -->
<g id="node15" class="node">
<title>PeriodInputsComponent</title>
<polygon fill="#ffffb3" stroke="black" points="176.38,-84.8 23.62,-84.8 23.62,-48.8 176.38,-48.8 176.38,-84.8"/>
<text text-anchor="middle" x="100" y="-62.6" font-family="Times,serif" font-size="14.00">PeriodInputsComponent</text>
</g>
<!-- PeriodInputsComponent&#45;&gt;AppModule -->
<g id="edge15" class="edge">
<title>PeriodInputsComponent&#45;&gt;AppModule</title>
<path fill="none" stroke="black" d="M100,-85.12C100,-108.46 100,-145.8 100,-145.8 100,-145.8 1255.1,-145.8 1255.1,-145.8"/>
<polygon fill="black" stroke="black" points="1255.1,-149.3 1265.1,-145.8 1255.1,-142.3 1255.1,-149.3"/>
</g>
<!-- AppComponent  -->
<g id="node18" class="node">
<title>AppComponent </title>
<polygon fill="#80b1d3" stroke="black" points="1361.44,-214.8 1252.56,-214.8 1252.56,-178.8 1361.44,-178.8 1361.44,-214.8"/>
<text text-anchor="middle" x="1307" y="-192.6" font-family="Times,serif" font-size="14.00">AppComponent </text>
</g>
<!-- AppModule&#45;&gt;AppComponent  -->
<g id="edge17" class="edge">
<title>AppModule&#45;&gt;AppComponent </title>
<path fill="none" stroke="black" stroke-dasharray="1,5" d="M1307,-149.91C1307,-149.91 1307,-168.79 1307,-168.79"/>
<polygon fill="black" stroke="black" points="1303.5,-168.79 1307,-178.79 1310.5,-168.79 1303.5,-168.79"/>
</g>
<!-- AppRoutingModule -->
<g id="node17" class="node">
<title>AppRoutingModule</title>
<polygon fill="#8dd3c7" stroke="black" points="2648.28,-84.8 2645.28,-88.8 2624.28,-88.8 2621.28,-84.8 2519.72,-84.8 2519.72,-48.8 2648.28,-48.8 2648.28,-84.8"/>
<text text-anchor="middle" x="2584" y="-62.6" font-family="Times,serif" font-size="14.00">AppRoutingModule</text>
</g>
<!-- AppRoutingModule&#45;&gt;AppModule -->
<g id="edge16" class="edge">
<title>AppRoutingModule&#45;&gt;AppModule</title>
<path fill="none" stroke="black" d="M2584,-85.12C2584,-108.46 2584,-145.8 2584,-145.8 2584,-145.8 1358.76,-145.8 1358.76,-145.8"/>
<polygon fill="black" stroke="black" points="1358.76,-142.3 1348.76,-145.8 1358.76,-149.3 1358.76,-142.3"/>
</g>
</g>
</svg>
