<?xml version="1.0" encoding="UTF-8" standalone="no"?>
<!DOCTYPE svg PUBLIC "-//W3C//DTD SVG 1.1//EN"
 "http://www.w3.org/Graphics/SVG/1.1/DTD/svg11.dtd">
<!-- Generated by graphviz version 3.0.0 (20220226.1711)
 -->
<!-- Title: dependencies Pages: 1 -->
<svg width="2680pt" height="247pt"
 viewBox="0.00 0.00 2680.00 246.80" xmlns="http://www.w3.org/2000/svg" xmlns:xlink="http://www.w3.org/1999/xlink">
<g id="graph0" class="graph" transform="scale(1 1) rotate(0) translate(4 242.8)">
<title>dependencies</title>
<polygon fill="white" stroke="transparent" points="-4,4 -4,-242.8 2676,-242.8 2676,4 -4,4"/>
<text text-anchor="middle" x="1336" y="-8.2" font-family="sans-serif" font-size="14.00">dependencies</text>
<g id="clust1" class="cluster">
<title>cluster_AppModule</title>
<polygon fill="none" stroke="black" stroke-dasharray="1,5" points="8,-32.8 8,-230.8 2664,-230.8 2664,-32.8 8,-32.8"/>
</g>
<g id="clust2" class="cluster">
<title>cluster_AppModule_declarations</title>
<polygon fill="none" stroke="black" points="168,-40.8 168,-92.8 2656,-92.8 2656,-40.8 168,-40.8"/>
</g>
<g id="clust18" class="cluster">
<title>cluster_AppModule_imports</title>
<polygon fill="none" stroke="black" points="16,-40.8 16,-92.8 160,-92.8 160,-40.8 16,-40.8"/>
</g>
<g id="clust20" class="cluster">
<title>cluster_AppModule_bootstrap</title>
<polygon fill="none" stroke="black" points="1211,-170.8 1211,-222.8 1335,-222.8 1335,-170.8 1211,-170.8"/>
</g>
<!-- AddCompComponent -->
<g id="node1" class="node">
<title>AddCompComponent</title>
<polygon fill="#ffffb3" stroke="black" points="2647.67,-84.8 2508.33,-84.8 2508.33,-48.8 2647.67,-48.8 2647.67,-84.8"/>
<text text-anchor="middle" x="2578" y="-62.6" font-family="Times,serif" font-size="14.00">AddCompComponent</text>
</g>
<!-- AppModule -->
<g id="node16" class="node">
<title>AppModule</title>
<polygon fill="#8dd3c7" stroke="black" points="1314.66,-149.8 1311.66,-153.8 1290.66,-153.8 1287.66,-149.8 1231.34,-149.8 1231.34,-113.8 1314.66,-113.8 1314.66,-149.8"/>
<text text-anchor="middle" x="1273" y="-127.6" font-family="Times,serif" font-size="14.00">AppModule</text>
</g>
<!-- AddCompComponent&#45;&gt;AppModule -->
<g id="edge1" class="edge">
<title>AddCompComponent&#45;&gt;AppModule</title>
<path fill="none" stroke="black" d="M2578,-85.12C2578,-108.46 2578,-145.8 2578,-145.8 2578,-145.8 1324.94,-145.8 1324.94,-145.8"/>
<polygon fill="black" stroke="black" points="1324.94,-142.3 1314.94,-145.8 1324.94,-149.3 1324.94,-142.3"/>
</g>
<!-- AddPeriodComponent -->
<g id="node2" class="node">
<title>AddPeriodComponent</title>
<polygon fill="#ffffb3" stroke="black" points="2489.99,-84.8 2348.01,-84.8 2348.01,-48.8 2489.99,-48.8 2489.99,-84.8"/>
<text text-anchor="middle" x="2419" y="-62.6" font-family="Times,serif" font-size="14.00">AddPeriodComponent</text>
</g>
<!-- AddPeriodComponent&#45;&gt;AppModule -->
<g id="edge2" class="edge">
<title>AddPeriodComponent&#45;&gt;AppModule</title>
<path fill="none" stroke="black" d="M2419,-85.09C2419,-107.01 2419,-140.8 2419,-140.8 2419,-140.8 1324.8,-140.8 1324.8,-140.8"/>
<polygon fill="black" stroke="black" points="1324.8,-137.3 1314.8,-140.8 1324.8,-144.3 1324.8,-137.3"/>
</g>
<!-- AppComponent -->
<g id="node3" class="node">
<title>AppComponent</title>
<polygon fill="#ffffb3" stroke="black" points="2329.94,-84.8 2224.06,-84.8 2224.06,-48.8 2329.94,-48.8 2329.94,-84.8"/>
<text text-anchor="middle" x="2277" y="-62.6" font-family="Times,serif" font-size="14.00">AppComponent</text>
</g>
<!-- AppComponent&#45;&gt;AppModule -->
<g id="edge3" class="edge">
<title>AppComponent&#45;&gt;AppModule</title>
<path fill="none" stroke="black" d="M2277,-84.83C2277,-105.57 2277,-136.8 2277,-136.8 2277,-136.8 1324.86,-136.8 1324.86,-136.8"/>
<polygon fill="black" stroke="black" points="1324.86,-133.3 1314.86,-136.8 1324.86,-140.3 1324.86,-133.3"/>
</g>
<!-- CompInputsComponent -->
<g id="node4" class="node">
<title>CompInputsComponent</title>
<polygon fill="#ffffb3" stroke="black" points="2206.06,-84.8 2055.94,-84.8 2055.94,-48.8 2206.06,-48.8 2206.06,-84.8"/>
<text text-anchor="middle" x="2131" y="-62.6" font-family="Times,serif" font-size="14.00">CompInputsComponent</text>
</g>
<!-- CompInputsComponent&#45;&gt;AppModule -->
<g id="edge4" class="edge">
<title>CompInputsComponent&#45;&gt;AppModule</title>
<path fill="none" stroke="black" d="M2131,-84.91C2131,-104.14 2131,-131.8 2131,-131.8 2131,-131.8 1324.67,-131.8 1324.67,-131.8"/>
<polygon fill="black" stroke="black" points="1324.67,-128.3 1314.67,-131.8 1324.67,-135.3 1324.67,-128.3"/>
</g>
<!-- ConfirmationDialogComponent -->
<g id="node5" class="node">
<title>ConfirmationDialogComponent</title>
<polygon fill="#ffffb3" stroke="black" points="2037.37,-84.8 1842.63,-84.8 1842.63,-48.8 2037.37,-48.8 2037.37,-84.8"/>
<text text-anchor="middle" x="1940" y="-62.6" font-family="Times,serif" font-size="14.00">ConfirmationDialogComponent</text>
</g>
<!-- ConfirmationDialogComponent&#45;&gt;AppModule -->
<g id="edge5" class="edge">
<title>ConfirmationDialogComponent&#45;&gt;AppModule</title>
<path fill="none" stroke="black" d="M1940,-85.1C1940,-103.07 1940,-127.8 1940,-127.8 1940,-127.8 1324.72,-127.8 1324.72,-127.8"/>
<polygon fill="black" stroke="black" points="1324.72,-124.3 1314.72,-127.8 1324.72,-131.3 1324.72,-124.3"/>
</g>
<!-- CpuTypeDetailsComponent -->
<g id="node6" class="node">
<title>CpuTypeDetailsComponent</title>
<polygon fill="#ffffb3" stroke="black" points="1824.59,-84.8 1651.41,-84.8 1651.41,-48.8 1824.59,-48.8 1824.59,-84.8"/>
<text text-anchor="middle" x="1738" y="-62.6" font-family="Times,serif" font-size="14.00">CpuTypeDetailsComponent</text>
</g>
<!-- CpuTypeDetailsComponent&#45;&gt;AppModule -->
<g id="edge6" class="edge">
<title>CpuTypeDetailsComponent&#45;&gt;AppModule</title>
<path fill="none" stroke="black" d="M1738,-84.83C1738,-101.2 1738,-122.8 1738,-122.8 1738,-122.8 1324.67,-122.8 1324.67,-122.8"/>
<polygon fill="black" stroke="black" points="1324.67,-119.3 1314.67,-122.8 1324.67,-126.3 1324.67,-119.3"/>
</g>
<!-- CpuTypeFormComponent -->
<g id="node7" class="node">
<title>CpuTypeFormComponent</title>
<polygon fill="#ffffb3" stroke="black" points="1633.77,-84.8 1470.23,-84.8 1470.23,-48.8 1633.77,-48.8 1633.77,-84.8"/>
<text text-anchor="middle" x="1552" y="-62.6" font-family="Times,serif" font-size="14.00">CpuTypeFormComponent</text>
</g>
<!-- CpuTypeFormComponent&#45;&gt;AppModule -->
<g id="edge7" class="edge">
<title>CpuTypeFormComponent&#45;&gt;AppModule</title>
<path fill="none" stroke="black" d="M1552,-84.99C1552,-99.98 1552,-118.8 1552,-118.8 1552,-118.8 1324.77,-118.8 1324.77,-118.8"/>
<polygon fill="black" stroke="black" points="1324.77,-115.3 1314.77,-118.8 1324.77,-122.3 1324.77,-115.3"/>
</g>
<!-- FormEditCompComponent -->
<g id="node8" class="node">
<title>FormEditCompComponent</title>
<polygon fill="#ffffb3" stroke="black" points="1451.73,-84.8 1282.27,-84.8 1282.27,-48.8 1451.73,-48.8 1451.73,-84.8"/>
<text text-anchor="middle" x="1367" y="-62.6" font-family="Times,serif" font-size="14.00">FormEditCompComponent</text>
</g>
<!-- FormEditCompComponent&#45;&gt;AppModule -->
<g id="edge8" class="edge">
<title>FormEditCompComponent&#45;&gt;AppModule</title>
<path fill="none" stroke="black" d="M1298.61,-84.91C1298.61,-84.91 1298.61,-103.79 1298.61,-103.79"/>
<polygon fill="black" stroke="black" points="1295.11,-103.79 1298.61,-113.79 1302.11,-103.79 1295.11,-103.79"/>
</g>
<!-- FormEditPeriodComponent -->
<g id="node9" class="node">
<title>FormEditPeriodComponent</title>
<polygon fill="#ffffb3" stroke="black" points="1264.55,-84.8 1093.45,-84.8 1093.45,-48.8 1264.55,-48.8 1264.55,-84.8"/>
<text text-anchor="middle" x="1179" y="-62.6" font-family="Times,serif" font-size="14.00">FormEditPeriodComponent</text>
</g>
<!-- FormEditPeriodComponent&#45;&gt;AppModule -->
<g id="edge9" class="edge">
<title>FormEditPeriodComponent&#45;&gt;AppModule</title>
<path fill="none" stroke="black" d="M1247.97,-84.91C1247.97,-84.91 1247.97,-103.79 1247.97,-103.79"/>
<polygon fill="black" stroke="black" points="1244.47,-103.79 1247.97,-113.79 1251.47,-103.79 1244.47,-103.79"/>
</g>
<!-- ListPeriodsComponent -->
<g id="node10" class="node">
<title>ListPeriodsComponent</title>
<polygon fill="#ffffb3" stroke="black" points="1075.61,-84.8 930.39,-84.8 930.39,-48.8 1075.61,-48.8 1075.61,-84.8"/>
<text text-anchor="middle" x="1003" y="-62.6" font-family="Times,serif" font-size="14.00">ListPeriodsComponent</text>
</g>
<!-- ListPeriodsComponent&#45;&gt;AppModule -->
<g id="edge10" class="edge">
<title>ListPeriodsComponent&#45;&gt;AppModule</title>
<path fill="none" stroke="black" d="M1003,-84.99C1003,-99.98 1003,-118.8 1003,-118.8 1003,-118.8 1221.11,-118.8 1221.11,-118.8"/>
<polygon fill="black" stroke="black" points="1221.11,-122.3 1231.11,-118.8 1221.11,-115.3 1221.11,-122.3"/>
</g>
<!-- LoginComponent -->
<g id="node11" class="node">
<title>LoginComponent</title>
<polygon fill="#ffffb3" stroke="black" points="912.27,-84.8 797.73,-84.8 797.73,-48.8 912.27,-48.8 912.27,-84.8"/>
<text text-anchor="middle" x="855" y="-62.6" font-family="Times,serif" font-size="14.00">LoginComponent</text>
</g>
<!-- LoginComponent&#45;&gt;AppModule -->
<g id="edge11" class="edge">
<title>LoginComponent&#45;&gt;AppModule</title>
<path fill="none" stroke="black" d="M855,-84.83C855,-101.2 855,-122.8 855,-122.8 855,-122.8 1221.01,-122.8 1221.01,-122.8"/>
<polygon fill="black" stroke="black" points="1221.01,-126.3 1231.01,-122.8 1221.01,-119.3 1221.01,-126.3"/>
</g>
<!-- MenuComponent -->
<g id="node12" class="node">
<title>MenuComponent</title>
<polygon fill="#ffffb3" stroke="black" points="779.99,-84.8 666.01,-84.8 666.01,-48.8 779.99,-48.8 779.99,-84.8"/>
<text text-anchor="middle" x="723" y="-62.6" font-family="Times,serif" font-size="14.00">MenuComponent</text>
</g>
<!-- MenuComponent&#45;&gt;AppModule -->
<g id="edge12" class="edge">
<title>MenuComponent&#45;&gt;AppModule</title>
<path fill="none" stroke="black" d="M723,-85.1C723,-103.07 723,-127.8 723,-127.8 723,-127.8 1221.21,-127.8 1221.21,-127.8"/>
<polygon fill="black" stroke="black" points="1221.21,-131.3 1231.21,-127.8 1221.21,-124.3 1221.21,-131.3"/>
</g>
<!-- MyComponentComponent -->
<g id="node13" class="node">
<title>MyComponentComponent</title>
<polygon fill="#ffffb3" stroke="black" points="648.11,-84.8 481.89,-84.8 481.89,-48.8 648.11,-48.8 648.11,-84.8"/>
<text text-anchor="middle" x="565" y="-62.6" font-family="Times,serif" font-size="14.00">MyComponentComponent</text>
</g>
<!-- MyComponentComponent&#45;&gt;AppModule -->
<g id="edge13" class="edge">
<title>MyComponentComponent&#45;&gt;AppModule</title>
<path fill="none" stroke="black" d="M565,-84.91C565,-104.14 565,-131.8 565,-131.8 565,-131.8 1221.09,-131.8 1221.09,-131.8"/>
<polygon fill="black" stroke="black" points="1221.09,-135.3 1231.09,-131.8 1221.09,-128.3 1221.09,-135.3"/>
</g>
<!-- PeriodComponent -->
<g id="node14" class="node">
<title>PeriodComponent</title>
<polygon fill="#ffffb3" stroke="black" points="463.88,-84.8 346.12,-84.8 346.12,-48.8 463.88,-48.8 463.88,-84.8"/>
<text text-anchor="middle" x="405" y="-62.6" font-family="Times,serif" font-size="14.00">PeriodComponent</text>
</g>
<!-- PeriodComponent&#45;&gt;AppModule -->
<g id="edge14" class="edge">
<title>PeriodComponent&#45;&gt;AppModule</title>
<path fill="none" stroke="black" d="M405,-84.83C405,-105.57 405,-136.8 405,-136.8 405,-136.8 1221.13,-136.8 1221.13,-136.8"/>
<polygon fill="black" stroke="black" points="1221.13,-140.3 1231.13,-136.8 1221.13,-133.3 1221.13,-140.3"/>
</g>
<!-- PeriodInputsComponent -->
<g id="node15" class="node">
<title>PeriodInputsComponent</title>
<polygon fill="#ffffb3" stroke="black" points="328.38,-84.8 175.62,-84.8 175.62,-48.8 328.38,-48.8 328.38,-84.8"/>
<text text-anchor="middle" x="252" y="-62.6" font-family="Times,serif" font-size="14.00">PeriodInputsComponent</text>
</g>
<!-- PeriodInputsComponent&#45;&gt;AppModule -->
<g id="edge15" class="edge">
<title>PeriodInputsComponent&#45;&gt;AppModule</title>
<path fill="none" stroke="black" d="M252,-85.09C252,-107.01 252,-140.8 252,-140.8 252,-140.8 1221.07,-140.8 1221.07,-140.8"/>
<polygon fill="black" stroke="black" points="1221.07,-144.3 1231.07,-140.8 1221.07,-137.3 1221.07,-144.3"/>
</g>
<!-- AppComponent  -->
<g id="node18" class="node">
<title>AppComponent </title>
<polygon fill="#80b1d3" stroke="black" points="1327.44,-214.8 1218.56,-214.8 1218.56,-178.8 1327.44,-178.8 1327.44,-214.8"/>
<text text-anchor="middle" x="1273" y="-192.6" font-family="Times,serif" font-size="14.00">AppComponent </text>
</g>
<!-- AppModule&#45;&gt;AppComponent  -->
<g id="edge17" class="edge">
<title>AppModule&#45;&gt;AppComponent </title>
<path fill="none" stroke="black" stroke-dasharray="1,5" d="M1273,-149.91C1273,-149.91 1273,-168.79 1273,-168.79"/>
<polygon fill="black" stroke="black" points="1269.5,-168.79 1273,-178.79 1276.5,-168.79 1269.5,-168.79"/>
</g>
<!-- AppRoutingModule -->
<g id="node17" class="node">
<title>AppRoutingModule</title>
<polygon fill="#8dd3c7" stroke="black" points="152.28,-84.8 149.28,-88.8 128.28,-88.8 125.28,-84.8 23.72,-84.8 23.72,-48.8 152.28,-48.8 152.28,-84.8"/>
<text text-anchor="middle" x="88" y="-62.6" font-family="Times,serif" font-size="14.00">AppRoutingModule</text>
</g>
<!-- AppRoutingModule&#45;&gt;AppModule -->
<g id="edge16" class="edge">
<title>AppRoutingModule&#45;&gt;AppModule</title>
<path fill="none" stroke="black" d="M88,-85.12C88,-108.46 88,-145.8 88,-145.8 88,-145.8 1221.17,-145.8 1221.17,-145.8"/>
<polygon fill="black" stroke="black" points="1221.17,-149.3 1231.17,-145.8 1221.17,-142.3 1221.17,-149.3"/>
</g>
</g>
</svg>
