<?xml version="1.0" encoding="UTF-8" standalone="no"?>
<!DOCTYPE svg PUBLIC "-//W3C//DTD SVG 1.1//EN"
 "http://www.w3.org/Graphics/SVG/1.1/DTD/svg11.dtd">
<!-- Generated by graphviz version 3.0.0 (20220226.1711)
 -->
<!-- Title: dependencies Pages: 1 -->
<svg width="1540pt" height="247pt"
 viewBox="0.00 0.00 1540.00 246.80" xmlns="http://www.w3.org/2000/svg" xmlns:xlink="http://www.w3.org/1999/xlink">
<g id="graph0" class="graph" transform="scale(1 1) rotate(0) translate(4 242.8)">
<title>dependencies</title>
<polygon fill="white" stroke="transparent" points="-4,4 -4,-242.8 1536,-242.8 1536,4 -4,4"/>
<text text-anchor="middle" x="766" y="-8.2" font-family="sans-serif" font-size="14.00">dependencies</text>
<g id="clust1" class="cluster">
<title>cluster_AppModule</title>
<polygon fill="none" stroke="black" stroke-dasharray="1,5" points="8,-32.8 8,-230.8 1524,-230.8 1524,-32.8 8,-32.8"/>
</g>
<g id="clust2" class="cluster">
<title>cluster_AppModule_declarations</title>
<polygon fill="none" stroke="black" points="168,-40.8 168,-92.8 1516,-92.8 1516,-40.8 168,-40.8"/>
</g>
<g id="clust12" class="cluster">
<title>cluster_AppModule_imports</title>
<polygon fill="none" stroke="black" points="16,-40.8 16,-92.8 160,-92.8 160,-40.8 16,-40.8"/>
</g>
<g id="clust14" class="cluster">
<title>cluster_AppModule_bootstrap</title>
<polygon fill="none" stroke="black" points="726,-170.8 726,-222.8 850,-222.8 850,-170.8 726,-170.8"/>
</g>
<!-- AboutComponent -->
<g id="node1" class="node">
<title>AboutComponent</title>
<polygon fill="#ffffb3" stroke="black" points="1508.33,-84.8 1391.67,-84.8 1391.67,-48.8 1508.33,-48.8 1508.33,-84.8"/>
<text text-anchor="middle" x="1450" y="-62.6" font-family="Times,serif" font-size="14.00">AboutComponent</text>
</g>
<!-- AppModule -->
<g id="node10" class="node">
<title>AppModule</title>
<polygon fill="#8dd3c7" stroke="black" points="829.66,-149.8 826.66,-153.8 805.66,-153.8 802.66,-149.8 746.34,-149.8 746.34,-113.8 829.66,-113.8 829.66,-149.8"/>
<text text-anchor="middle" x="788" y="-127.6" font-family="Times,serif" font-size="14.00">AppModule</text>
</g>
<!-- AboutComponent&#45;&gt;AppModule -->
<g id="edge1" class="edge">
<title>AboutComponent&#45;&gt;AppModule</title>
<path fill="none" stroke="black" d="M1450,-84.81C1450,-107.29 1450,-142.8 1450,-142.8 1450,-142.8 839.91,-142.8 839.91,-142.8"/>
<polygon fill="black" stroke="black" points="839.91,-139.3 829.91,-142.8 839.91,-146.3 839.91,-139.3"/>
</g>
<!-- AppComponent -->
<g id="node2" class="node">
<title>AppComponent</title>
<polygon fill="#ffffb3" stroke="black" points="1373.94,-84.8 1268.06,-84.8 1268.06,-48.8 1373.94,-48.8 1373.94,-84.8"/>
<text text-anchor="middle" x="1321" y="-62.6" font-family="Times,serif" font-size="14.00">AppComponent</text>
</g>
<!-- AppComponent&#45;&gt;AppModule -->
<g id="edge2" class="edge">
<title>AppComponent&#45;&gt;AppModule</title>
<path fill="none" stroke="black" d="M1321,-84.93C1321,-105.37 1321,-135.8 1321,-135.8 1321,-135.8 839.82,-135.8 839.82,-135.8"/>
<polygon fill="black" stroke="black" points="839.82,-132.3 829.82,-135.8 839.82,-139.3 839.82,-132.3"/>
</g>
<!-- CompDetailsComponent -->
<g id="node3" class="node">
<title>CompDetailsComponent</title>
<polygon fill="#ffffb3" stroke="black" points="1250.71,-84.8 1095.29,-84.8 1095.29,-48.8 1250.71,-48.8 1250.71,-84.8"/>
<text text-anchor="middle" x="1173" y="-62.6" font-family="Times,serif" font-size="14.00">CompDetailsComponent</text>
</g>
<!-- CompDetailsComponent&#45;&gt;AppModule -->
<g id="edge3" class="edge">
<title>CompDetailsComponent&#45;&gt;AppModule</title>
<path fill="none" stroke="black" d="M1173,-85.07C1173,-103.36 1173,-128.8 1173,-128.8 1173,-128.8 839.93,-128.8 839.93,-128.8"/>
<polygon fill="black" stroke="black" points="839.93,-125.3 829.93,-128.8 839.93,-132.3 839.93,-125.3"/>
</g>
<!-- CpuDetailsComponent -->
<g id="node4" class="node">
<title>CpuDetailsComponent</title>
<polygon fill="#ffffb3" stroke="black" points="1077.32,-84.8 932.68,-84.8 932.68,-48.8 1077.32,-48.8 1077.32,-84.8"/>
<text text-anchor="middle" x="1005" y="-62.6" font-family="Times,serif" font-size="14.00">CpuDetailsComponent</text>
</g>
<!-- CpuDetailsComponent&#45;&gt;AppModule -->
<g id="edge4" class="edge">
<title>CpuDetailsComponent&#45;&gt;AppModule</title>
<path fill="none" stroke="black" d="M1005,-84.81C1005,-100.85 1005,-121.8 1005,-121.8 1005,-121.8 839.84,-121.8 839.84,-121.8"/>
<polygon fill="black" stroke="black" points="839.84,-118.3 829.84,-121.8 839.84,-125.3 839.84,-118.3"/>
</g>
<!-- FooterComponent -->
<g id="node5" class="node">
<title>FooterComponent</title>
<polygon fill="#ffffb3" stroke="black" points="914.88,-84.8 797.12,-84.8 797.12,-48.8 914.88,-48.8 914.88,-84.8"/>
<text text-anchor="middle" x="856" y="-62.6" font-family="Times,serif" font-size="14.00">FooterComponent</text>
</g>
<!-- FooterComponent&#45;&gt;AppModule -->
<g id="edge5" class="edge">
<title>FooterComponent&#45;&gt;AppModule</title>
<path fill="none" stroke="black" d="M813.44,-84.91C813.44,-84.91 813.44,-103.79 813.44,-103.79"/>
<polygon fill="black" stroke="black" points="809.94,-103.79 813.44,-113.79 816.94,-103.79 809.94,-103.79"/>
</g>
<!-- HomeComponent -->
<g id="node6" class="node">
<title>HomeComponent</title>
<polygon fill="#ffffb3" stroke="black" points="778.55,-84.8 663.45,-84.8 663.45,-48.8 778.55,-48.8 778.55,-84.8"/>
<text text-anchor="middle" x="721" y="-62.6" font-family="Times,serif" font-size="14.00">HomeComponent</text>
</g>
<!-- HomeComponent&#45;&gt;AppModule -->
<g id="edge6" class="edge">
<title>HomeComponent&#45;&gt;AppModule</title>
<path fill="none" stroke="black" d="M762.47,-84.91C762.47,-84.91 762.47,-103.79 762.47,-103.79"/>
<polygon fill="black" stroke="black" points="758.97,-103.79 762.47,-113.79 765.97,-103.79 758.97,-103.79"/>
</g>
<!-- MainNavComponent -->
<g id="node7" class="node">
<title>MainNavComponent</title>
<polygon fill="#ffffb3" stroke="black" points="645.21,-84.8 510.79,-84.8 510.79,-48.8 645.21,-48.8 645.21,-84.8"/>
<text text-anchor="middle" x="578" y="-62.6" font-family="Times,serif" font-size="14.00">MainNavComponent</text>
</g>
<!-- MainNavComponent&#45;&gt;AppModule -->
<g id="edge7" class="edge">
<title>MainNavComponent&#45;&gt;AppModule</title>
<path fill="none" stroke="black" d="M578,-84.81C578,-100.85 578,-121.8 578,-121.8 578,-121.8 736.26,-121.8 736.26,-121.8"/>
<polygon fill="black" stroke="black" points="736.26,-125.3 746.26,-121.8 736.26,-118.3 736.26,-125.3"/>
</g>
<!-- MuseumTimelineComponent -->
<g id="node8" class="node">
<title>MuseumTimelineComponent</title>
<polygon fill="#ffffb3" stroke="black" points="492.37,-84.8 311.63,-84.8 311.63,-48.8 492.37,-48.8 492.37,-84.8"/>
<text text-anchor="middle" x="402" y="-62.6" font-family="Times,serif" font-size="14.00">MuseumTimelineComponent</text>
</g>
<!-- MuseumTimelineComponent&#45;&gt;AppModule -->
<g id="edge8" class="edge">
<title>MuseumTimelineComponent&#45;&gt;AppModule</title>
<path fill="none" stroke="black" d="M402,-85.07C402,-103.36 402,-128.8 402,-128.8 402,-128.8 736.32,-128.8 736.32,-128.8"/>
<polygon fill="black" stroke="black" points="736.32,-132.3 746.32,-128.8 736.32,-125.3 736.32,-132.3"/>
</g>
<!-- PeriodComponent -->
<g id="node9" class="node">
<title>PeriodComponent</title>
<polygon fill="#ffffb3" stroke="black" points="293.88,-84.8 176.12,-84.8 176.12,-48.8 293.88,-48.8 293.88,-84.8"/>
<text text-anchor="middle" x="235" y="-62.6" font-family="Times,serif" font-size="14.00">PeriodComponent</text>
</g>
<!-- PeriodComponent&#45;&gt;AppModule -->
<g id="edge9" class="edge">
<title>PeriodComponent&#45;&gt;AppModule</title>
<path fill="none" stroke="black" d="M235,-84.93C235,-105.37 235,-135.8 235,-135.8 235,-135.8 735.98,-135.8 735.98,-135.8"/>
<polygon fill="black" stroke="black" points="735.98,-139.3 745.98,-135.8 735.98,-132.3 735.98,-139.3"/>
</g>
<!-- AppComponent  -->
<g id="node12" class="node">
<title>AppComponent </title>
<polygon fill="#80b1d3" stroke="black" points="842.44,-214.8 733.56,-214.8 733.56,-178.8 842.44,-178.8 842.44,-214.8"/>
<text text-anchor="middle" x="788" y="-192.6" font-family="Times,serif" font-size="14.00">AppComponent </text>
</g>
<!-- AppModule&#45;&gt;AppComponent  -->
<g id="edge11" class="edge">
<title>AppModule&#45;&gt;AppComponent </title>
<path fill="none" stroke="black" stroke-dasharray="1,5" d="M788,-149.91C788,-149.91 788,-168.79 788,-168.79"/>
<polygon fill="black" stroke="black" points="784.5,-168.79 788,-178.79 791.5,-168.79 784.5,-168.79"/>
</g>
<!-- AppRoutingModule -->
<g id="node11" class="node">
<title>AppRoutingModule</title>
<polygon fill="#8dd3c7" stroke="black" points="152.28,-84.8 149.28,-88.8 128.28,-88.8 125.28,-84.8 23.72,-84.8 23.72,-48.8 152.28,-48.8 152.28,-84.8"/>
<text text-anchor="middle" x="88" y="-62.6" font-family="Times,serif" font-size="14.00">AppRoutingModule</text>
</g>
<!-- AppRoutingModule&#45;&gt;AppModule -->
<g id="edge10" class="edge">
<title>AppRoutingModule&#45;&gt;AppModule</title>
<path fill="none" stroke="black" d="M88,-84.81C88,-107.29 88,-142.8 88,-142.8 88,-142.8 736.31,-142.8 736.31,-142.8"/>
<polygon fill="black" stroke="black" points="736.31,-146.3 746.31,-142.8 736.31,-139.3 736.31,-146.3"/>
</g>
</g>
</svg>
